<svg
  width="100"
  height="100"
  viewBox="0 0 100 100"
  fill="none"
  xmlns="http://www.w3.org/2000/svg"
>
  <g opacity="0.4">
    <path
      d="M19.0975 72.1704C14.8048 67.6133 12.5 62.4991 12.5 54.2087C12.5 39.6277 22.7355 26.556 37.6275 20.0957L41.347 25.8357C27.4502 33.3549 24.7341 43.1075 23.6485 49.2575C25.886 48.1004 28.8149 47.6933 31.6863 47.9595C39.2045 48.6566 45.13 54.8283 45.13 62.4991C45.13 70.5533 38.6007 77.0825 30.5465 77.0825C26.0754 77.0825 21.7998 75.0387 19.0975 72.1704ZM60.7642 72.1704C56.4717 67.6133 54.1667 62.4991 54.1667 54.2087C54.1667 39.6277 64.4021 26.556 79.2942 20.0957L83.0137 25.8357C69.1167 33.3549 66.4008 43.1075 65.315 49.2575C67.5525 48.1004 70.4817 47.6933 73.3529 47.9595C80.8712 48.6566 86.7967 54.8283 86.7967 62.4991C86.7967 70.5533 80.2675 77.0825 72.2133 77.0825C67.7421 77.0825 63.4667 75.0387 60.7642 72.1704Z"
      fill="white"
    />
  </g>
</svg>
