<svg
  width="40"
  height="41"
  viewBox="0 0 40 41"
  fill="none"
  xmlns="http://www.w3.org/2000/svg"
>
  <rect
    x="0.5"
    y="0.832031"
    width="39"
    height="39"
    rx="19.5"
    stroke="#E1E1E1"
  />
  <g clip-path="url(#clip0_13817_2958)">
    <path
      fill-rule="evenodd"
      clip-rule="evenodd"
      d="M12.4286 16.4148C12.4286 14.3973 14.0641 12.7617 16.0816 12.7617H23.9184C25.936 12.7617 27.5715 14.3973 27.5715 16.4148V24.2515C27.5715 26.269 25.936 27.9046 23.9184 27.9046H16.0816C14.0641 27.9046 12.4286 26.269 12.4286 24.2515V16.4148ZM16.0816 14.1903C14.8531 14.1903 13.8571 15.1862 13.8571 16.4148V24.2515C13.8571 25.4801 14.8531 26.476 16.0816 26.476H23.9184C25.147 26.476 26.143 25.4801 26.143 24.2515V16.4148C26.143 15.1862 25.147 14.1903 23.9184 14.1903H16.0816ZM23.9543 17.2259C23.402 17.2259 22.9542 16.7782 22.9542 16.2259C22.9542 15.6736 23.402 15.2259 23.9543 15.2259C24.5065 15.2259 24.9543 15.6736 24.9543 16.2259C24.9543 16.7782 24.5065 17.2259 23.9543 17.2259ZM19.9997 16.8479C18.0749 16.8479 16.5145 18.4083 16.5145 20.3332C16.5145 22.258 18.0749 23.8184 19.9997 23.8184C21.9246 23.8184 23.4849 22.258 23.4849 20.3332C23.4849 18.4083 21.9246 16.8479 19.9997 16.8479Z"
      fill="white"
    />
  </g>
  <defs>
    <clipPath id="clip0_13817_2958">
      <rect
        width="16"
        height="16"
        fill="white"
        transform="translate(12 12.332)"
      />
    </clipPath>
  </defs>
</svg>
