<svg
  width="40"
  height="41"
  viewBox="0 0 40 41"
  fill="none"
  xmlns="http://www.w3.org/2000/svg"
>
  <rect
    x="0.5"
    y="0.832031"
    width="39"
    height="39"
    rx="19.5"
    stroke="#E1E1E1"
  />
  <g clip-path="url(#clip0_13817_2953)">
    <path
      fill-rule="evenodd"
      clip-rule="evenodd"
      d="M15.3296 15.031C15.6258 14.7256 15.79 14.3161 15.7867 13.8907C15.7713 13.478 15.5988 13.0869 15.3046 12.7972C15.0103 12.5074 14.6165 12.3411 14.2037 12.332C13.7897 12.3409 13.3945 12.5069 13.0983 12.7963C12.8021 13.0857 12.627 13.4769 12.6085 13.8907C12.6145 14.3153 12.7834 14.7214 13.0802 15.0251C13.3771 15.3288 13.7793 15.5068 14.2037 15.5224C14.629 15.5128 15.0334 15.3363 15.3296 15.031ZM13.9073 17.6246C13.237 17.6094 12.779 17.599 12.779 18.4205V27.5532C12.779 28.3576 13.2157 28.3409 13.845 28.3171C13.9588 28.3127 14.0788 28.3081 14.2037 28.3081C14.3288 28.3081 14.4488 28.3127 14.5622 28.3171C15.1885 28.3409 15.6162 28.3573 15.6162 27.5532V18.4205C15.6162 17.5992 15.1678 17.6094 14.5001 17.6246C14.4055 17.6267 14.3065 17.629 14.2037 17.629C14.1011 17.629 14.0021 17.6268 13.9073 17.6246ZM18.5752 17.6412C18.2708 17.7021 18.076 17.8969 18.076 18.4205V27.5532C18.076 28.3568 18.4945 28.3411 19.1249 28.3171C19.2395 28.3127 19.3611 28.3081 19.4885 28.3081C19.6156 28.3081 19.7373 28.3127 19.8522 28.3171C20.4857 28.3411 20.9132 28.3572 20.9132 27.5532V22.6824C20.889 22.4335 20.9179 22.1823 20.998 21.9454C21.0782 21.7086 21.2077 21.4914 21.3781 21.3084C21.5485 21.1253 21.7558 20.9806 21.9864 20.8837C22.2169 20.7868 22.4654 20.7399 22.7154 20.7463C22.9665 20.7314 23.2179 20.7707 23.4526 20.8616C23.6872 20.9525 23.8994 21.0928 24.0751 21.273C24.2506 21.4532 24.3854 21.6691 24.4702 21.906C24.5549 22.1429 24.5877 22.3952 24.5663 22.6459V27.5166C24.5663 28.3204 24.9848 28.3045 25.6152 28.2806C25.7298 28.2763 25.8514 28.2716 25.9787 28.2716C26.1062 28.2716 26.2278 28.2763 26.3424 28.2806C26.9728 28.3045 27.3913 28.3204 27.3913 27.5166V21.2821C27.4145 20.7702 27.3297 20.2592 27.1424 19.7822C26.9552 19.3052 26.6697 18.8729 26.3046 18.5135C25.9393 18.154 25.5026 17.8754 25.0227 17.6958C24.5429 17.5161 24.0305 17.4394 23.5191 17.4707C22.9982 17.4233 22.4739 17.5104 21.9963 17.7236C21.5188 17.9368 21.1039 18.269 20.7914 18.6884C20.8036 18.2378 20.6575 17.6412 20.2922 17.6412C20.1874 17.6412 20.0266 17.6362 19.8433 17.6305C19.3874 17.6163 18.7923 17.5978 18.5752 17.6412Z"
      fill="white"
    />
  </g>
  <defs>
    <clipPath id="clip0_13817_2953">
      <rect
        width="16"
        height="16"
        fill="white"
        transform="translate(12 12.332)"
      />
    </clipPath>
  </defs>
</svg>
