<svg
  width="24"
  height="25"
  viewBox="0 0 24 25"
  fill="none"
  xmlns="http://www.w3.org/2000/svg"
>
  <path
    d="M2 7.33203L10.1649 13.0475C10.8261 13.5103 11.1567 13.7417 11.5163 13.8313C11.8339 13.9105 12.1661 13.9105 12.4837 13.8313C12.8433 13.7417 13.1739 13.5103 13.8351 13.0475L22 7.33203M6.8 20.332H17.2C18.8802 20.332 19.7202 20.332 20.362 20.0051C20.9265 19.7174 21.3854 19.2585 21.673 18.694C22 18.0523 22 17.2122 22 15.532V9.13203C22 7.45187 22 6.6118 21.673 5.97006C21.3854 5.40557 20.9265 4.94663 20.362 4.65901C19.7202 4.33203 18.8802 4.33203 17.2 4.33203H6.8C5.11984 4.33203 4.27976 4.33203 3.63803 4.65901C3.07354 4.94663 2.6146 5.40557 2.32698 5.97006C2 6.6118 2 7.45187 2 9.13203L2 15.532C2 17.2122 2 18.0523 2.32698 18.694C2.6146 19.2585 3.07354 19.7174 3.63803 20.0051C4.27976 20.332 5.11984 20.332 6.8 20.332Z"
    stroke="white"
    stroke-width="1.5"
    stroke-linecap="round"
    stroke-linejoin="round"
  />
</svg>
