<svg
  width="24"
  height="25"
  viewBox="0 0 24 25"
  fill="none"
  xmlns="http://www.w3.org/2000/svg"
>
  <path
    d="M5 14.6184C3.14864 15.4351 2 16.5732 2 17.832C2 20.3173 6.47715 22.332 12 22.332C17.5228 22.332 22 20.3173 22 17.832C22 16.5732 20.8514 15.4351 19 14.6184M18 8.33203C18 12.3957 13.5 14.332 12 17.332C10.5 14.332 6 12.3957 6 8.33203C6 5.01832 8.68629 2.33203 12 2.33203C15.3137 2.33203 18 5.01832 18 8.33203ZM13 8.33203C13 8.88432 12.5523 9.33203 12 9.33203C11.4477 9.33203 11 8.88432 11 8.33203C11 7.77975 11.4477 7.33203 12 7.33203C12.5523 7.33203 13 7.77975 13 8.33203Z"
    stroke="white"
    stroke-width="1.5"
    stroke-linecap="round"
    stroke-linejoin="round"
  />
</svg>
