<svg
  width="24"
  height="25"
  viewBox="0 0 24 25"
  fill="none"
  xmlns="http://www.w3.org/2000/svg"
>
  <path
    d="M8.38028 9.18538C9.07627 10.635 10.0251 11.9936 11.2266 13.1952C12.4282 14.3968 13.7869 15.3456 15.2365 16.0416C15.3612 16.1015 15.4235 16.1314 15.5024 16.1544C15.7828 16.2361 16.127 16.1774 16.3644 16.0074C16.4313 15.9596 16.4884 15.9024 16.6027 15.7881C16.9523 15.4385 17.1271 15.2637 17.3029 15.1494C17.9658 14.7184 18.8204 14.7184 19.4833 15.1494C19.6591 15.2637 19.8339 15.4385 20.1835 15.7881L20.3783 15.983C20.9098 16.5144 21.1755 16.7801 21.3198 17.0655C21.6069 17.6331 21.6069 18.3033 21.3198 18.8709C21.1755 19.1563 20.9098 19.422 20.3783 19.9534L20.2207 20.1111C19.6911 20.6407 19.4263 20.9055 19.0662 21.1077C18.6667 21.3322 18.0462 21.4935 17.588 21.4922C17.1751 21.4909 16.8928 21.4108 16.3284 21.2506C13.295 20.3897 10.4326 18.7652 8.04466 16.3772C5.65668 13.9892 4.03221 11.1269 3.17124 8.09347C3.01103 7.52902 2.93092 7.2468 2.9297 6.83385C2.92833 6.37563 3.08969 5.75514 3.31411 5.35563C3.51636 4.9956 3.78117 4.73079 4.3108 4.20116L4.46843 4.04353C4.99987 3.51209 5.2656 3.24637 5.55098 3.10202C6.11854 2.81495 6.7888 2.81495 7.35636 3.10202C7.64174 3.24637 7.90747 3.51209 8.43891 4.04353L8.63378 4.2384C8.98338 4.58801 9.15819 4.76281 9.27247 4.93859C9.70347 5.60148 9.70347 6.45606 9.27247 7.11895C9.15819 7.29473 8.98338 7.46953 8.63378 7.81913C8.51947 7.93345 8.46231 7.9906 8.41447 8.05742C8.24446 8.29485 8.18576 8.6391 8.26748 8.91946C8.29048 8.99835 8.32041 9.06069 8.38028 9.18538Z"
    stroke="white"
    stroke-width="1.5"
    stroke-linecap="round"
    stroke-linejoin="round"
  />
</svg>
