<svg
  width="56"
  height="56"
  viewBox="0 0 56 56"
  fill="none"
  xmlns="http://www.w3.org/2000/svg"
>
  <path
    d="M28 49.875C40.0811 49.875 49.875 40.0811 49.875 28C49.875 15.9188 40.0811 6.125 28 6.125C15.9188 6.125 6.125 15.9188 6.125 28C6.125 31.4993 6.94667 34.8066 8.40757 37.7398C8.79581 38.5192 8.92502 39.4102 8.69995 40.2513L7.39705 45.1209C6.83145 47.2347 8.76533 49.1684 10.8792 48.603L15.7487 47.3001C16.5898 47.075 17.4808 47.2043 18.2602 47.5923C21.1933 49.0534 24.5007 49.875 28 49.875Z"
    stroke="white"
  />
  <path d="M28 36.75V19.25" stroke="white" stroke-linecap="round" />
  <path d="M19.25 32.375V23.625" stroke="white" stroke-linecap="round" />
  <path d="M36.75 32.375V23.625" stroke="white" stroke-linecap="round" />
</svg>
