<svg
  width="56"
  height="56"
  viewBox="0 0 56 56"
  fill="none"
  xmlns="http://www.w3.org/2000/svg"
>
  <g clip-path="url(#clip0_12914_18841)">
    <path
      fill-rule="evenodd"
      clip-rule="evenodd"
      d="M5.38414 28.3772C7.71654 30.1498 9.37253 28.4939 7.57659 26.5348L7.38999 26.3481C7.00735 25.9813 6.60231 25.6386 6.17717 25.3219C5.734 24.9953 5.26752 24.7155 4.80104 24.4355C3.67271 23.8011 2.48537 23.2777 1.25583 22.8728C1.0486 22.7708 0.809317 22.7552 0.590611 22.8296C0.371908 22.9039 0.191701 23.0621 0.0896343 23.2693C-0.0124325 23.4765 -0.0279986 23.7159 0.0463608 23.9345C0.12072 24.1532 0.278913 24.3335 0.486141 24.4355C1.48907 25.1119 2.32873 25.975 3.28501 26.7679C3.89816 27.313 4.5447 27.8193 5.22088 28.2841L5.38414 28.3772Z"
      fill="white"
    />
    <path
      fill-rule="evenodd"
      clip-rule="evenodd"
      d="M27.9849 41.0878C27.9076 40.8712 27.7476 40.6944 27.5397 40.5959C27.332 40.4977 27.0935 40.4858 26.877 40.563C26.6605 40.6405 26.4836 40.8005 26.3851 41.0082C26.2869 41.2161 26.275 41.4543 26.3522 41.6709C26.4822 42.3513 26.3364 43.0555 25.9472 43.6285C25.5577 44.2014 24.9569 44.5964 24.2765 44.7264C23.8651 44.7376 23.457 44.6494 23.087 44.4697C22.6883 44.3171 22.3237 44.0873 22.014 43.7935C21.8074 43.5788 21.6127 43.353 21.4309 43.1171C21.3244 42.9521 21.2456 42.7708 21.1977 42.5806C21.103 42.1368 21.1691 41.6739 21.3843 41.2744C21.5476 41.1111 21.6642 40.9478 21.8041 40.7847C21.9975 40.5131 22.2434 40.2832 22.5272 40.1082C23.0401 39.772 23.64 39.593 24.2532 39.593C24.8664 39.593 25.4663 39.772 25.9791 40.1082C26.1278 40.231 26.3172 40.2935 26.51 40.2832C26.7025 40.273 26.8842 40.1908 27.0193 40.0532C27.1542 39.9153 27.2324 39.7316 27.2384 39.5389C27.2445 39.3462 27.178 39.1581 27.052 39.012C26.4787 38.4245 25.7607 37.9989 24.9704 37.7777C24.1801 37.5565 23.3453 37.5479 22.5505 37.7525C22.5455 37.389 22.4906 37.028 22.3872 36.6796C22.308 36.4615 22.1464 36.283 21.9371 36.1826C21.7277 36.0823 21.4874 36.0681 21.2677 36.1432C21.1578 36.1798 21.0563 36.2382 20.9694 36.3147C20.8825 36.3912 20.8119 36.4846 20.7619 36.5891C20.7118 36.6936 20.6833 36.807 20.678 36.9228C20.6728 37.0385 20.6909 37.1542 20.7312 37.2627C20.8595 37.6568 20.8595 38.0815 20.7312 38.4756C20.0129 38.8874 19.4172 39.4831 19.0053 40.2016C18.9123 40.2116 18.8184 40.2116 18.7254 40.2016C18.321 40.2186 17.9191 40.1302 17.5592 39.9449C17.1104 39.8406 16.689 39.6418 16.323 39.3618C16.1128 39.1572 15.9251 38.9304 15.7633 38.6854C15.6409 38.5267 15.5535 38.344 15.5067 38.1489C15.4315 37.6573 15.5154 37.1545 15.7461 36.7139C15.9769 36.2734 16.3425 35.918 16.7895 35.7001C17.3002 35.358 17.9009 35.1756 18.5155 35.1756C19.13 35.1756 19.7308 35.358 20.2414 35.7001C20.3899 35.8422 20.5888 35.9197 20.7944 35.9155C21 35.911 21.1954 35.8252 21.3377 35.6768C21.4799 35.5281 21.5574 35.3293 21.553 35.1238C21.5487 34.9182 21.4628 34.7227 21.3143 34.5806C20.8414 34.0789 20.2574 33.6953 19.6093 33.4603C18.9612 33.2254 18.267 33.1456 17.5825 33.2277C17.6657 32.5765 17.5689 31.9152 17.3026 31.3151C17.2253 31.0985 17.0651 30.9217 16.8574 30.8232C16.6496 30.725 16.4112 30.7131 16.1947 30.7903C15.9782 30.8678 15.8013 31.0278 15.7029 31.2355C15.6045 31.4434 15.5926 31.6816 15.67 31.8982C15.7504 32.2407 15.7523 32.597 15.6756 32.9402C15.5988 33.2837 15.4454 33.605 15.2268 33.8808C14.7728 34.1223 14.3563 34.4287 13.9906 34.7903C13.8563 34.8582 13.7157 34.9128 13.5708 34.9537C13.1681 34.9537 12.7701 34.8662 12.4046 34.697C12.0059 34.5444 11.6413 34.3146 11.3317 34.0208C11.1186 33.8122 10.9235 33.5859 10.7486 33.3444C10.628 33.1787 10.5481 32.9869 10.5154 32.7846C10.4187 32.2855 10.4985 31.7684 10.741 31.3216C10.9835 30.875 11.3737 30.5264 11.8448 30.3355C12.3577 29.9993 12.9576 29.8203 13.5708 29.8203C14.184 29.8203 14.7839 29.9993 15.2968 30.3355C15.4475 30.424 15.6237 30.4585 15.7966 30.4333C15.9695 30.4083 16.1287 30.3253 16.2481 30.1976C16.3675 30.0702 16.44 29.9057 16.4536 29.7317C16.4672 29.5574 16.4212 29.3838 16.323 29.2393C15.5863 28.5825 14.6841 28.1396 13.7139 27.9588C12.7437 27.778 11.7425 27.8659 10.8186 28.2131C9.84548 28.5279 9.0178 29.1819 8.48622 30.0555C7.81466 30.9952 7.51548 32.1504 7.64655 33.2977C7.72875 33.7886 7.89442 34.2621 8.13636 34.697C8.46716 35.2159 8.85867 35.6936 9.30254 36.1199C9.98142 36.7039 10.7885 37.1195 11.6582 37.3327C12.0141 37.4419 12.3826 37.5047 12.7545 37.5192C12.7076 37.8988 12.7076 38.2826 12.7545 38.662C12.8409 39.1481 13.0148 39.6143 13.2676 40.0382C13.5833 40.5749 13.9762 41.0621 14.4338 41.4844C15.1102 42.0589 15.9074 42.4733 16.7662 42.6971C17.3204 42.8485 17.895 42.9115 18.4688 42.8837C18.4802 42.9453 18.4802 43.0086 18.4688 43.0704C18.5487 43.5653 18.7229 44.0404 18.9819 44.4697C19.2981 44.9991 19.6911 45.4786 20.1481 45.8926C20.8152 46.4808 21.6159 46.8971 22.4805 47.1054C23.3343 47.3479 24.2389 47.3479 25.0927 47.1054C25.7176 46.9125 26.2976 46.5963 26.7984 46.1758C27.2991 45.7551 27.7105 45.2385 28.0082 44.6564C28.2651 44.0959 28.3962 43.486 28.3923 42.8695C28.3883 42.253 28.2492 41.645 27.9849 41.0878Z"
      fill="white"
    />
    <path
      fill-rule="evenodd"
      clip-rule="evenodd"
      d="M25.186 14.8248C25.5033 14.8856 25.8153 14.9714 26.1191 15.0814C27.7284 15.7345 28.6146 14.0318 27.4484 13.2855C26.8679 12.9383 26.239 12.6789 25.5827 12.5158C24.126 12.2019 22.6245 12.1545 21.151 12.3758C19.8498 12.4639 18.5428 12.4012 17.256 12.1892L12.4746 10.3933C11.37 9.92862 10.2213 9.57697 9.04593 9.34375C8.94632 9.35206 8.84951 9.38092 8.76162 9.42854C8.67374 9.47614 8.59667 9.54148 8.53531 9.62039C8.47394 9.69928 8.42958 9.79005 8.40508 9.88697C8.38056 9.98388 8.37641 10.0848 8.39288 10.1834C8.40856 10.3575 8.48486 10.5206 8.60846 10.6442C8.73208 10.7678 8.89515 10.8441 9.06927 10.8598C9.06927 10.8598 9.34915 10.9997 9.60572 11.1397C11.0518 11.8861 14.1072 13.7986 16.183 14.8482C17.0358 15.3351 17.9815 15.6371 18.9586 15.7345L21.5942 15.198C22.7668 14.8988 23.9769 14.7731 25.186 14.8248Z"
      fill="white"
    />
    <path
      fill-rule="evenodd"
      clip-rule="evenodd"
      d="M55.787 9.04162C55.6659 8.84104 55.4703 8.69656 55.2431 8.63975C55.0158 8.58293 54.7755 8.6184 54.5741 8.7384L50.4226 11.0708C49.6788 11.4973 48.898 11.8564 48.0902 12.1437C47.6156 12.2962 47.1189 12.3672 46.6207 12.3536C45.84 12.3417 45.0611 12.2794 44.2883 12.167C43.6018 12.0487 42.924 11.885 42.2592 11.6772C41.2797 11.3507 40.3466 10.9308 39.3671 10.651C38.6111 10.422 37.8243 10.3118 37.0347 10.3244C36.4049 10.3538 35.7835 10.4796 35.192 10.6976C34.3667 10.9721 33.5823 11.3565 32.8596 11.8405C32.2765 12.1903 26.912 17.1583 26.3989 17.6948C25.5003 18.5459 24.7163 19.5103 24.0665 20.5636C23.6182 21.3561 23.3625 22.243 23.3202 23.1525C23.2679 23.6845 23.3373 24.2214 23.5233 24.7223C23.709 25.2235 24.0065 25.6757 24.3931 26.0446C24.9417 26.4784 25.5808 26.7833 26.2631 26.9366C26.9453 27.0902 27.6535 27.0881 28.3348 26.9311C29.5391 26.69 30.6672 26.162 31.6234 25.3918C32.5764 24.6336 33.4656 23.799 34.2825 22.896C35.4702 23.3951 36.7299 23.7022 38.0142 23.8055C38.6188 23.8753 39.2292 23.8753 39.8335 23.8055C40.4327 23.7188 41.0198 23.5622 41.5828 23.3391C42.8696 22.798 44.0354 22.005 45.0114 21.0067C45.0968 20.9507 45.1696 20.8778 45.2256 20.7925C45.2816 20.7072 45.3196 20.6113 45.3371 20.5107C45.3546 20.4102 45.3514 20.3071 45.3273 20.2079C45.3035 20.1086 45.2594 20.0154 45.1981 19.9339C45.1397 19.8511 45.066 19.7806 44.9806 19.7265C44.8952 19.6723 44.7998 19.6355 44.7001 19.6182C44.6005 19.6009 44.4985 19.6034 44.3998 19.6255C44.3011 19.6476 44.2078 19.689 44.1252 19.7473C43.0523 20.2022 41.9223 20.5082 40.7664 20.6569L38.7373 21.0067C38.2709 21.0067 37.8509 21.17 37.3844 21.1933C36.6548 21.2517 35.9217 21.2517 35.192 21.1933C35.2149 21.1093 35.2149 21.0208 35.192 20.9368C35.1225 20.8648 35.0392 20.8076 34.947 20.7686C34.8549 20.7295 34.7557 20.7093 34.6556 20.7093C34.5555 20.7093 34.4563 20.7295 34.3642 20.7686C34.272 20.8076 34.1887 20.8648 34.1192 20.9368C33.0176 22.0306 31.8323 23.0366 30.5739 23.9456C29.8219 24.4633 28.9592 24.7989 28.0551 24.9251C27.429 25.0273 26.7869 24.912 26.2358 24.5986C26.0164 24.4789 25.8414 24.2918 25.7364 24.065C25.6314 23.8382 25.602 23.5839 25.6527 23.3391C25.7504 22.8053 25.9569 22.2972 26.2591 21.8464C26.8399 21.0328 27.513 20.2893 28.2648 19.6306C29.4077 18.4878 30.5972 17.2983 31.8101 16.1554C32.5736 15.4528 33.3926 14.8132 34.2592 14.2428C34.71 13.9384 35.186 13.6731 35.6818 13.4498C36.6007 13.0466 37.6304 12.9724 38.5973 13.2399C39.5535 13.4498 40.4633 13.7997 41.4195 14.0796C42.2553 14.2877 43.1048 14.4357 43.9619 14.5227C44.8009 14.5691 45.6419 14.5691 46.4807 14.5227C47.2295 14.501 47.9696 14.3593 48.6733 14.1029C49.599 13.7152 50.4887 13.247 51.3322 12.7035L55.3672 10.1612C55.5681 10.0649 55.7242 9.89454 55.8024 9.68587C55.8808 9.47718 55.8752 9.24632 55.787 9.04162Z"
      fill="white"
    />
    <path
      fill-rule="evenodd"
      clip-rule="evenodd"
      d="M43.3088 32.6675C43.1662 32.2594 42.9947 31.8618 42.7957 31.478C42.136 30.3461 41.3539 29.29 40.4633 28.3292L37.9678 25.4837C37.8411 25.3369 37.6637 25.2433 37.4712 25.2216C37.2785 25.1999 37.0848 25.2517 36.9287 25.3665C36.7726 25.4813 36.6655 25.651 36.6289 25.8414C36.5925 26.0318 36.6291 26.2289 36.7316 26.3934L38.5742 29.7054C39.1804 30.6735 39.7108 31.6873 40.1602 32.7375C40.4441 33.326 40.6331 33.9558 40.7199 34.6033C40.7941 35.0111 40.7806 35.4302 40.68 35.8325C40.5795 36.2347 40.3942 36.6109 40.1368 36.9357C39.8099 37.3081 39.392 37.5892 38.924 37.7521C38.8897 37.6646 38.8507 37.579 38.8073 37.4954C38.3154 36.7642 37.7697 36.0702 37.1747 35.4197L33.8161 31.618C33.7517 31.523 33.6693 31.4416 33.5736 31.3786C33.4777 31.3154 33.3706 31.2717 33.2579 31.25C33.0304 31.2064 32.795 31.2547 32.6032 31.3847C32.4114 31.5146 32.2791 31.7153 32.2355 31.9428C32.1916 32.1703 32.2401 32.4057 32.3699 32.5975L34.9823 37.0523C35.4265 37.6765 35.8391 38.3226 36.2185 38.9883C36.4201 39.3322 36.5769 39.7007 36.6849 40.0845C36.8144 40.3514 36.8527 40.6536 36.7936 40.9443C36.7348 41.2351 36.5818 41.4985 36.3585 41.6938C36.0248 41.9698 35.6209 42.1474 35.1923 42.2069V41.9971C34.9445 41.4677 34.6395 40.967 34.2825 40.5043C33.7227 39.8278 33.1863 39.1747 32.5799 38.5452C31.9734 37.9154 31.4137 37.309 30.7839 36.7259C30.656 36.5696 30.4722 36.4697 30.2713 36.448C30.0706 36.4261 29.8695 36.4842 29.711 36.6092C29.5533 36.7411 29.453 36.9291 29.431 37.1338C29.4093 37.3384 29.4679 37.5433 29.5944 37.7054C29.9677 38.2652 30.2941 38.8016 30.6206 39.3847C30.9472 39.9678 31.5303 41.0874 31.9501 41.9738L32.6032 43.5598L32.2768 44.1195C32.1193 44.3715 31.9118 44.5885 31.6671 44.757C31.4223 44.9255 31.1456 45.0419 30.8539 45.0991C30.2904 45.2489 29.6914 45.1824 29.1746 44.9124C29.0782 44.8527 28.9709 44.8123 28.8589 44.7941C28.7469 44.7757 28.6323 44.7796 28.5217 44.8058C28.4114 44.8317 28.3071 44.8793 28.2149 44.9455C28.1227 45.012 28.0448 45.0958 27.9851 45.1924C27.863 45.3907 27.8238 45.6292 27.8763 45.8562C27.9286 46.0833 28.0684 46.2804 28.2651 46.4053C29.0148 47.0551 29.9787 47.4042 30.9706 47.3848C31.6167 47.4014 32.2595 47.2835 32.8578 47.0385C33.4558 46.7938 33.9967 46.4272 34.4458 45.9622C34.7863 45.6119 35.0695 45.2106 35.2854 44.7726C35.3565 44.5449 35.4037 44.3104 35.4254 44.0729C36.228 44.1289 37.0316 43.976 37.7578 43.6298C38.4442 43.2455 38.9944 42.6577 39.333 41.9477C39.6713 41.2374 39.781 40.4399 39.6471 39.6647C40.5095 39.503 41.3138 39.1169 41.9795 38.5452C42.5108 38.061 42.9396 37.4749 43.2402 36.8218C43.5405 36.1687 43.7068 35.4619 43.7288 34.7433C43.6753 34.0367 43.5342 33.3393 43.3088 32.6675Z"
      fill="white"
    />
    <path
      fill-rule="evenodd"
      clip-rule="evenodd"
      d="M55.9736 29.7988C55.9466 29.6884 55.8976 29.5844 55.8301 29.4929C55.7625 29.4014 55.6775 29.3242 55.58 29.2656C55.4825 29.2071 55.3742 29.1683 55.2617 29.1518C55.149 29.1352 55.0345 29.141 54.9241 29.169C53.5015 29.3324 52.1253 29.379 50.7491 29.6121C49.8127 29.7626 48.8915 29.9969 47.9969 30.3119C46.9684 30.6997 45.9898 31.2088 45.0814 31.8279C43.169 32.621 44.3119 34.1603 46.1078 33.6472L48.2769 33.2041L49.9095 32.8076L51.5188 32.2945C52.8017 31.8512 54.0612 31.3614 55.3439 30.8483C55.4545 30.821 55.5583 30.7723 55.6498 30.7046C55.7415 30.6372 55.8187 30.552 55.877 30.4545C55.9356 30.3569 55.9743 30.2489 55.9909 30.1362C56.0075 30.0237 56.0016 29.9089 55.9736 29.7988Z"
      fill="white"
    />
  </g>
  <defs>
    <clipPath id="clip0_12914_18841">
      <rect width="56" height="56" fill="white" />
    </clipPath>
  </defs>
</svg>
