<svg
  width="56"
  height="56"
  viewBox="0 0 56 56"
  fill="none"
  xmlns="http://www.w3.org/2000/svg"
>
  <path
    d="M50.1446 15.0013H45.8119V12.5943C45.8119 9.66977 43.441 7.29896 40.5165 7.29883H5.85544C2.93095 7.29896 0.560001 9.66977 0.560001 12.5943V35.7016C0.560001 38.6261 2.93095 40.9969 5.85544 40.9971H33.2954V43.4041C33.2954 46.3288 35.6662 48.6997 38.5909 48.6995H50.1446C53.0691 48.6994 55.44 46.3286 55.44 43.4041V20.2967C55.44 17.3722 53.0691 15.0014 50.1446 15.0013ZM5.85544 38.1087C4.52609 38.1087 3.44842 37.031 3.44842 35.7016V12.5943C3.44842 11.265 4.52611 10.1873 5.85544 10.1872H40.5165C41.8458 10.1873 42.9235 11.265 42.9235 12.5943V15.0013H38.5909C35.6662 15.0012 33.2954 17.372 33.2954 20.2967V38.1087H5.85544ZM52.5516 43.4041C52.5516 44.7335 51.4739 45.8111 50.1446 45.8111H38.5909C37.2615 45.8111 36.1839 44.7335 36.1839 43.4041V20.2967C36.1839 18.9674 37.2615 17.8897 38.5909 17.8897H50.1446C51.4739 17.8897 52.5516 18.9674 52.5516 20.2967V43.4041ZM28.4814 47.2553C28.4814 48.053 27.8348 48.6996 27.0372 48.6995H17.4091C16.2974 48.6982 15.604 47.4938 16.1611 46.5317C16.419 46.0863 16.8944 45.8118 17.4091 45.8111H27.0372C27.8348 45.8111 28.4814 46.4577 28.4814 47.2553ZM47.7376 24.148C47.7376 24.9455 47.0909 25.5921 46.2933 25.5922H42.4421C41.3304 25.5908 40.637 24.3864 41.1941 23.4243C41.4519 22.9789 41.9274 22.7044 42.4421 22.7038H46.2933C47.0909 22.7038 47.7376 23.3504 47.7376 24.148Z"
    fill="white"
  />
</svg>
