<svg
  width="56"
  height="56"
  viewBox="0 0 56 56"
  fill="none"
  xmlns="http://www.w3.org/2000/svg"
>
  <path
    d="M28.42 23.5657C28.0159 23.2066 27.6894 22.7687 27.4608 22.2789C27.2321 21.7892 27.1059 21.2578 27.09 20.7175C27.0741 20.1771 27.1689 19.6392 27.3684 19.1368C27.5679 18.6344 27.8679 18.1781 28.2501 17.7959C28.6323 17.4136 29.0887 17.1136 29.5911 16.9141C30.0935 16.7146 30.6313 16.6199 31.1717 16.6358C31.7121 16.6517 32.2434 16.7779 32.7332 17.0066C33.2229 17.2353 33.6609 17.5617 34.02 17.9657C34.4176 18.3548 34.7277 18.8241 34.93 19.3424C34.9958 19.499 35.0978 19.6378 35.2275 19.7473C35.3572 19.8568 35.5112 19.934 35.6767 19.9724C35.8377 20.0077 36.005 20.0027 36.1639 19.958C36.3225 19.9132 36.4677 19.83 36.5867 19.7157L39.6667 16.6124C39.8536 16.4279 40.002 16.2081 40.1035 15.9658C40.2047 15.7234 40.2568 15.4634 40.2568 15.2007C40.2568 14.9381 40.2047 14.678 40.1035 14.4357C40.002 14.1933 39.8536 13.9736 39.6667 13.7891L36.4 10.5457C37.0804 10.3717 37.7013 10.017 38.1967 9.51905C38.5677 9.14849 38.8621 8.70838 39.063 8.22393C39.2639 7.73946 39.3673 7.22018 39.3673 6.69571C39.3673 6.17127 39.2639 5.65199 39.063 5.16752C38.8621 4.68307 38.5677 4.24296 38.1967 3.87238C37.8261 3.50129 37.3861 3.20689 36.9014 3.00604C36.417 2.80516 35.8979 2.70177 35.3733 2.70177C34.8488 2.70177 34.3296 2.80516 33.8452 3.00604C33.3606 3.20689 32.9205 3.50129 32.55 3.87238C32.0521 4.36782 31.6974 4.98858 31.5233 5.66907L28.21 2.3324C28.0254 2.14544 27.8056 1.997 27.5634 1.89568C27.321 1.79436 27.0611 1.74219 26.7983 1.74219C26.5356 1.74219 26.2757 1.79436 26.0332 1.89568C25.791 1.997 25.5712 2.14544 25.3867 2.3324L22.5167 5.17907C22.4092 5.28372 22.3279 5.41215 22.2793 5.55401C22.2306 5.69588 22.216 5.84717 22.2367 5.99571C22.2499 6.14544 22.2966 6.29027 22.3733 6.41949C22.4501 6.54874 22.5549 6.65908 22.68 6.7424C22.9152 6.87991 23.1278 7.05309 23.31 7.25571C23.7141 7.61481 24.0403 8.05271 24.2692 8.5425C24.4979 9.03229 24.6241 9.56366 24.64 10.104C24.6559 10.6443 24.5611 11.1822 24.3616 11.6846C24.1621 12.187 23.8621 12.6433 23.4799 13.0256C23.0976 13.4078 22.6413 13.7079 22.1389 13.9074C21.6365 14.1069 21.0986 14.2016 20.5582 14.1857C20.0179 14.1698 19.4865 14.0436 18.9968 13.8149C18.507 13.5862 18.0691 13.2598 17.71 12.8557C17.525 12.6574 17.3536 12.4469 17.1967 12.2257C17.1146 12.0994 17.0046 11.9937 16.8751 11.9169C16.7456 11.84 16.6001 11.794 16.45 11.7824C16.305 11.7618 16.1571 11.7765 16.019 11.8252C15.8809 11.874 15.7566 11.9553 15.6567 12.0624L12.7867 14.9324C12.5997 15.1169 12.4512 15.3367 12.3499 15.579C12.2486 15.8214 12.1964 16.0814 12.1964 16.3441C12.1964 16.6067 12.2486 16.8668 12.3499 17.1091C12.4512 17.3514 12.5997 17.5712 12.7867 17.7557L24.22 29.189C24.4046 29.3759 24.6244 29.5246 24.8666 29.6258C25.109 29.7271 25.3689 29.7794 25.6317 29.7794C25.8944 29.7794 26.1543 29.7271 26.3968 29.6258C26.639 29.5246 26.8588 29.3759 27.0433 29.189L30.1467 26.109C30.261 25.9868 30.3438 25.8384 30.3877 25.6767C30.4316 25.5152 30.4353 25.3453 30.3984 25.182C30.3618 25.0184 30.2855 24.8668 30.1765 24.7396C30.0676 24.6124 29.9292 24.5137 29.7733 24.4524C29.2654 24.2543 28.8045 23.9521 28.42 23.5657Z"
    stroke="white"
    stroke-width="1.5"
    stroke-linecap="round"
    stroke-linejoin="round"
  />
  <path
    d="M8.75 54.25L4.08333 48.37C2.59096 46.5087 1.769 44.1989 1.75 41.8133V29.75C1.75 28.8218 2.11875 27.9314 2.77513 27.275C3.43149 26.6187 4.32175 26.25 5.25 26.25C6.17825 26.25 7.06851 26.6187 7.72487 27.275C8.38124 27.9314 8.75 28.8218 8.75 29.75V38.9433"
    stroke="white"
    stroke-width="1.5"
    stroke-linecap="round"
    stroke-linejoin="round"
  />
  <path
    d="M19.25 54.2503V46.9236C19.2541 44.853 18.6363 42.8288 17.4766 41.1136L14.8166 37.1003C14.5861 36.7169 14.2799 36.3846 13.9167 36.1238C13.5535 35.8629 13.141 35.6788 12.7042 35.5827C12.2675 35.4865 11.8157 35.4807 11.3765 35.5649C10.9374 35.6494 10.52 35.8223 10.15 36.0736C9.48628 36.5137 9.00774 37.1826 8.80549 37.9529C8.60326 38.7231 8.69146 39.5407 9.05331 40.2503L12.25 45.5003"
    stroke="white"
    stroke-width="1.5"
    stroke-linecap="round"
    stroke-linejoin="round"
  />
  <path
    d="M47.25 54.25L51.9167 48.37C53.4172 46.5131 54.2402 44.2006 54.25 41.8133V29.75C54.25 28.8218 53.8813 27.9314 53.225 27.275C52.5686 26.6187 51.6782 26.25 50.75 26.25C49.8218 26.25 48.9314 26.6187 48.275 27.275C47.6187 27.9314 47.25 28.8218 47.25 29.75V38.8033"
    stroke="white"
    stroke-width="1.5"
    stroke-linecap="round"
    stroke-linejoin="round"
  />
  <path
    d="M36.75 54.2503V46.9236C36.7458 44.853 37.3637 42.8291 38.5233 41.1136L41.1833 37.1003C41.4115 36.7146 41.7165 36.3797 42.0796 36.117C42.4426 35.854 42.8559 35.6688 43.2934 35.5724C43.7311 35.476 44.184 35.4709 44.6238 35.5572C45.0637 35.6433 45.4811 35.8193 45.85 36.0736C46.5176 36.5102 47.001 37.1775 47.2075 37.9482C47.4143 38.7187 47.3296 39.5384 46.97 40.2503L43.75 45.5003"
    stroke="white"
    stroke-width="1.5"
    stroke-linecap="round"
    stroke-linejoin="round"
  />
</svg>
