<svg
  width="56"
  height="56"
  viewBox="0 0 56 56"
  fill="none"
  xmlns="http://www.w3.org/2000/svg"
>
  <g clip-path="url(#clip0_12871_17239)">
    <path
      fill-rule="evenodd"
      clip-rule="evenodd"
      d="M47.9446 42.7837C47.6646 42.6957 47.3751 42.6409 47.0822 42.6206C47.2838 41.8601 47.3235 41.0661 47.1989 40.2896C47.0906 39.6169 46.8363 38.9759 46.4536 38.4122C46.0712 37.8484 45.5695 37.3752 44.9843 37.0262C44.3492 36.6449 43.6389 36.406 42.9028 36.3255C42.1664 36.245 41.4213 36.325 40.7188 36.56C39.0395 37.056 37.4612 37.8452 36.0568 38.891C35.0777 39.5903 34.262 40.3362 33.586 40.7791C32.1174 41.7813 29.4602 43.343 28.2714 44.0423C28.115 44.1473 27.9669 44.2642 27.8285 44.392C26.9267 44.3325 26.0349 44.1683 25.1711 43.9025C23.8635 43.6671 22.6227 43.1502 21.5349 42.3875V42.061C21.6846 41.7857 21.8644 41.5276 22.071 41.2917C24.5418 38.4481 27.0125 37.0962 27.8518 35.3711C28.1773 34.6861 28.3183 33.928 28.2611 33.1717C28.2039 32.4155 27.9503 31.687 27.5254 31.0589C27.1094 30.3897 26.4955 29.8663 25.7686 29.5616C25.042 29.2566 24.2387 29.1852 23.4696 29.3572C20.7515 29.8722 18.1468 30.8666 15.7773 32.2944C13.4841 33.7084 11.046 34.8727 8.50472 35.7673H7.85204C7.0567 35.8243 6.25896 35.6966 5.52109 35.3945C4.40095 35.0468 3.31614 34.5941 2.28103 34.0425C2.1892 33.9858 2.08711 33.9478 1.9806 33.9308C1.87409 33.9135 1.76523 33.9175 1.66026 33.9424C1.55528 33.9674 1.45623 34.0127 1.36877 34.0759C1.2813 34.1389 1.20714 34.2187 1.15051 34.3106C1.09388 34.4023 1.0559 34.5045 1.03872 34.6109C1.02154 34.7176 1.02551 34.8263 1.05041 34.9313C1.0753 35.0363 1.12062 35.1355 1.18379 35.2227C1.24696 35.3102 1.32674 35.3844 1.41857 35.4411C2.57647 36.1904 3.80163 36.8304 5.0782 37.3526C5.977 37.7019 6.93439 37.876 7.89866 37.8652H8.20169C8.83825 37.7775 9.46346 37.6212 10.0665 37.399C12.4241 36.5266 14.708 35.4666 16.8962 34.229C18.7658 33.1925 20.7645 32.4087 22.8402 31.898C24.0756 31.6415 25.1711 31.4784 25.6839 32.3408C25.9252 32.6743 26.0736 33.0656 26.1147 33.4751C26.1555 33.8843 26.0874 34.2973 25.917 34.6718C25.1013 36.2569 22.7003 37.399 20.346 39.9865C18.5978 41.9213 18.8076 43.343 19.6934 44.392C21.0474 45.5172 22.6427 46.3149 24.3553 46.723C25.4378 47.0677 26.5561 47.2868 27.6885 47.3757C29.2948 47.4916 30.9073 47.4916 32.5136 47.3757C34.0744 47.3103 35.6305 47.1624 37.1756 46.9328C39.9261 46.5133 42.164 45.9537 43.7724 45.7673C44.7279 45.5449 45.7049 45.4278 46.686 45.4175C46.9849 45.4602 47.2652 45.5886 47.4927 45.7871C47.7204 45.9857 47.8854 46.2461 47.968 46.5366C48.2477 47.1426 47.968 47.6554 47.4087 48.145C46.2343 49.2034 44.9157 50.0903 43.4926 50.7788C39.8274 52.6369 35.7835 53.626 31.6745 53.6694C25.3178 53.8385 18.9749 52.9885 12.887 51.1519C12.7569 51.1193 12.6208 51.1193 12.4907 51.1519L1.9547 52.9701C1.85958 52.985 1.7684 53.0186 1.68653 53.0692C1.60464 53.1201 1.53371 53.1866 1.4779 53.265C1.42208 53.3434 1.38251 53.4323 1.36149 53.5261C1.34049 53.6201 1.33846 53.7174 1.35555 53.8122C1.37264 53.9069 1.40849 53.9972 1.46099 54.0779C1.5135 54.1587 1.5816 54.228 1.66131 54.2821C1.74101 54.336 1.8307 54.3736 1.92512 54.3925C2.01953 54.4114 2.11677 54.4111 2.2111 54.3918L12.5373 52.8767C18.7305 54.9422 25.2159 55.9969 31.7445 56.0001C36.2714 56.0137 40.7398 54.9765 44.7979 52.9701C46.8137 52.0239 48.6143 50.6755 50.0892 49.0074C50.484 48.4749 50.7325 47.8482 50.8102 47.1899C50.8879 46.5315 50.792 45.8644 50.5321 45.2544C50.3083 44.6781 49.9604 44.1582 49.5133 43.7312C49.0663 43.3042 48.5308 42.9808 47.9446 42.7837ZM43.4926 42.9234C41.8609 43.1099 39.5999 43.6694 36.8027 44.0889C35.367 44.3188 33.9194 44.4667 32.4672 44.5318H31.3948C32.6303 43.9958 33.9822 43.413 34.9146 42.9468C35.847 42.4806 36.4065 42.0844 37.2456 41.4784C38.3241 40.8073 39.4452 40.2079 40.6021 39.6834C41.0667 39.3637 41.5994 39.1572 42.158 39.0802C42.7166 39.0034 43.2854 39.0583 43.8188 39.2405C44.1649 39.3996 44.474 39.629 44.727 39.9139C44.9797 40.1988 45.1705 40.5332 45.2874 40.8955C45.4393 41.5078 45.4393 42.1481 45.2874 42.7603L43.4926 42.9234Z"
      fill="white"
    />
    <path
      fill-rule="evenodd"
      clip-rule="evenodd"
      d="M50.2523 4.32227C48.0485 2.56333 45.4942 1.29569 42.7604 0.604228C40.0267 -0.0872273 37.177 -0.186518 34.4017 0.31301C31.8967 0.778363 29.5743 1.94211 27.7018 3.67012C25.8295 5.39812 24.4837 7.62004 23.8191 10.0798C22.3841 14.8363 22.8694 19.9657 25.1711 24.3686C26.408 26.3048 28.0637 27.9384 30.0165 29.1487C31.9692 30.359 34.1689 31.1152 36.453 31.3616C40.9351 32.1895 45.563 31.227 49.3432 28.6809C49.4326 28.6202 49.5089 28.5423 49.5679 28.4517C49.627 28.3612 49.6673 28.2599 49.6869 28.1538C49.7065 28.0474 49.7047 27.9384 49.6818 27.8327C49.6587 27.7272 49.6151 27.6274 49.553 27.5387C49.423 27.367 49.2319 27.2517 49.0194 27.2172C48.8066 27.1824 48.5889 27.2307 48.4108 27.3523C44.94 29.5244 40.7601 30.2601 36.7561 29.4035C34.8313 29.1566 32.9847 28.4874 31.3488 27.4437C29.7127 26.4 28.3276 25.0077 27.2923 23.3662C25.4231 19.5217 25.1139 15.1029 26.4299 11.0355C26.9355 9.02813 28.0016 7.20606 29.5041 5.78207C31.0065 4.35808 32.883 3.39094 34.9146 2.99362C37.3289 2.48087 39.8249 2.48796 42.2364 3.01446C44.6476 3.54095 46.9194 4.57478 48.9004 6.04718C51.9307 8.61126 53.8188 12.8769 53.1195 19.5668C53.0124 20.5769 52.7856 21.5707 52.4435 22.5271C52.1096 23.4764 51.6383 24.3717 51.0449 25.1844C50.9322 25.3365 50.8839 25.5267 50.9101 25.7143C50.9362 25.9016 51.0349 26.0713 51.1847 26.1868C51.2589 26.2456 51.3443 26.2887 51.4355 26.3135C51.5268 26.3384 51.6222 26.3445 51.7158 26.3314C51.8096 26.3184 51.8996 26.2864 51.9806 26.2374C52.0616 26.1886 52.1318 26.1238 52.1871 26.047C52.8964 25.1491 53.47 24.1516 53.8888 23.0866C54.3069 22.0216 54.5965 20.9104 54.7512 19.7766C55.6836 12.2476 53.5624 7.35254 50.2523 4.32227Z"
      fill="white"
    />
    <path
      fill-rule="evenodd"
      clip-rule="evenodd"
      d="M39.9961 15.814V14.6485C39.7864 12.6206 39.3202 9.98659 39.2502 9.33394C39.2502 9.14228 39.1741 8.95848 39.0385 8.82298C38.903 8.68746 38.7191 8.61133 38.5275 8.61133C38.336 8.61133 38.1521 8.68746 38.0165 8.82298C37.8812 8.95848 37.8049 9.14228 37.8049 9.33394C37.8049 9.96328 37.4087 12.6672 37.3154 14.7418V17.0727C37.3252 17.4064 37.4556 17.7252 37.6831 17.9697C37.9104 18.2141 38.2188 18.3676 38.5509 18.4014H41.3014C42.8864 18.4014 44.0519 18.4014 45.4272 18.2616C45.6419 18.2619 45.8486 18.1799 46.0047 18.0325C46.1608 17.885 46.2544 17.6834 46.2663 17.469C46.2695 17.3619 46.2513 17.2552 46.2133 17.155C46.175 17.0548 46.1176 16.9631 46.0439 16.8852C45.9704 16.8073 45.8822 16.7446 45.7844 16.7008C45.6864 16.657 45.581 16.6329 45.4739 16.6299L39.9961 15.814Z"
      fill="white"
    />
  </g>
  <defs>
    <clipPath id="clip0_12871_17239">
      <rect width="56" height="56" fill="white" />
    </clipPath>
  </defs>
</svg>
